<?xml version="1.0" encoding="utf-8"?>
<!-- Generator: Adobe Illustrator 15.0.0, SVG Export Plug-In  -->
<!DOCTYPE svg PUBLIC "-//W3C//DTD SVG 1.1//EN" "http://www.w3.org/Graphics/SVG/1.1/DTD/svg11.dtd" [
	<!ENTITY ns_flows "http://ns.adobe.com/Flows/1.0/">
]>
<svg version="1.1"
	 xmlns="http://www.w3.org/2000/svg" xmlns:xlink="http://www.w3.org/1999/xlink" xmlns:a="http://ns.adobe.com/AdobeSVGViewerExtensions/3.0/"
	 x="0px" y="0px" width="500px" height="500px" viewBox="-65.6 -23.7 500 500"
	 overflow="visible" enable-background="new -65.6 -23.7 500 500" xml:space="preserve">
<defs>
</defs>
<path d="M35,41.5V0h-9.6C11.3,0,0,11.3,0,25.3v16.2H35z"/>
<rect x="41.3" width="31.5" height="41.5"/>
<rect x="41.3" y="47.8" width="31.5" height="30.3"/>
<path d="M344,0H79.2v41.5h18.6v6.3H79.2v30.3h18.6v6.3H79.2v11.5h-6.3V84.4H41.3v11.5H35V84.4H0V344c0,14,11.3,25.3,25.3,25.3H344
	c14,0,25.3-11.3,25.3-25.3V25.3C369.4,11.3,358,0,344,0z"/>
<rect y="47.8" width="35" height="30.3"/>
<g>
	<linearGradient id="SVGID_1_" gradientUnits="userSpaceOnUse" x1="358.6328" y1="364.8125" x2="63.1201" y2="58.8002">
		<stop  offset="0" style="stop-color:#F1F2F2"/>
		<stop  offset="0.6344" style="stop-color:#F3F3F4"/>
		<stop  offset="0.8626" style="stop-color:#F9F9F9"/>
		<stop  offset="0.9325" style="stop-color:#FFFFFF"/>
		<stop  offset="0.9422" style="stop-color:#EFF0F1"/>
		<stop  offset="0.9606" style="stop-color:#CFD1D3"/>
		<stop  offset="0.9857" style="stop-color:#9D9FA2"/>
		<stop  offset="1" style="stop-color:#808285"/>
		<a:midPointStop  offset="0" style="stop-color:#F1F2F2"/>
		<a:midPointStop  offset="0.87" style="stop-color:#F1F2F2"/>
		<a:midPointStop  offset="0.9325" style="stop-color:#FFFFFF"/>
		<a:midPointStop  offset="0.5625" style="stop-color:#FFFFFF"/>
		<a:midPointStop  offset="1" style="stop-color:#808285"/>
	</linearGradient>
	<path fill="url(#SVGID_1_)" d="M25.3,369.1c-13.8,0-25.1-11.2-25.1-25.1V124.7h97.9c13.5-0.3,25.2-12,25.6-25.6V0.2H344
		c13.8,0,25.1,11.2,25.1,25.1V344c0,13.8-11.2,25.1-25.1,25.1H25.3z"/>
	<g>
		<path d="M344,0.5c13.7,0,24.8,11.1,24.8,24.8V344c0,13.7-11.1,24.8-24.8,24.8H25.3c-13.7,0-24.8-11.1-24.8-24.8V124.9h97.7
			c13.6-0.3,25.4-12.1,25.8-25.8V0.5H344 M344,0H123.5v99.1c-0.4,13.9-12.3,25.1-25.3,25.3H0V344c0,14,11.3,25.3,25.3,25.3H344
			c14,0,25.3-11.3,25.3-25.3V25.3C369.4,11.3,358,0,344,0L344,0z"/>
	</g>
</g>
<linearGradient id="SVGID_2_" gradientUnits="userSpaceOnUse" x1="115.6562" y1="118.0508" x2="60.608" y2="61.0466">
	<stop  offset="0" style="stop-color:#A7A9AC"/>
	<stop  offset="0.3931" style="stop-color:#A9ABAD"/>
	<stop  offset="0.5347" style="stop-color:#AEB0B3"/>
	<stop  offset="0.6356" style="stop-color:#B8BABC"/>
	<stop  offset="0.7172" style="stop-color:#C6C8CA"/>
	<stop  offset="0.7863" style="stop-color:#D8D9DB"/>
	<stop  offset="0.8282" style="stop-color:#E6E7E8"/>
	<stop  offset="0.8653" style="stop-color:#E3E4E5"/>
	<stop  offset="0.9061" style="stop-color:#D8D9DA"/>
	<stop  offset="0.9487" style="stop-color:#C5C7C9"/>
	<stop  offset="0.9923" style="stop-color:#ACAEB1"/>
	<stop  offset="1" style="stop-color:#A7A9AC"/>
	<a:midPointStop  offset="0" style="stop-color:#A7A9AC"/>
	<a:midPointStop  offset="0.87" style="stop-color:#A7A9AC"/>
	<a:midPointStop  offset="0.8282" style="stop-color:#E6E7E8"/>
	<a:midPointStop  offset="0.6875" style="stop-color:#E6E7E8"/>
	<a:midPointStop  offset="1" style="stop-color:#A7A9AC"/>
</linearGradient>
<path fill="url(#SVGID_2_)" d="M101.3,124.7H0.1L123.7,0.1v101.1C123.7,112.4,112.1,124.7,101.3,124.7z"/>
<rect x="90.9" y="162.3" fill="#58595B" width="187.6" height="15.3"/>
<rect x="90.9" y="204.2" fill="#58595B" width="187.6" height="15.3"/>
<rect x="90.9" y="245" fill="#58595B" width="187.6" height="15.3"/>
<path d="M90.1,436.1c0,6.3-2,11.6-6,15.7c-4,4.1-9.2,6.2-15.6,6.2c-6.4,0-11.5-2.1-15.5-6.2c-4-4.1-6-9.4-6-15.7v-9.3
	c0-6.3,2-11.6,5.9-15.7c4-4.2,9.1-6.2,15.5-6.2c6.4,0,11.6,2.1,15.7,6.2c4,4.2,6,9.4,6,15.7V436.1z M79.8,426.8c0-4-1-7.3-3-9.9
	c-2-2.6-4.8-3.9-8.3-3.9c-3.5,0-6.3,1.3-8.2,3.9c-1.9,2.6-2.9,5.9-2.9,9.9v9.4c0,4.1,1,7.4,2.9,10c2,2.6,4.7,3.9,8.2,3.9
	c3.6,0,6.3-1.3,8.3-3.9c2-2.6,3-5.9,3-10V426.8z"/>
<path d="M106.8,418.9l0.5,5.5c1.3-2,2.9-3.5,4.7-4.6s4-1.6,6.3-1.6c3.9,0,6.9,1.2,9.1,3.7c2.2,2.4,3.3,6.3,3.3,11.5v24h-10.4v-24
	c0-2.6-0.5-4.4-1.6-5.5c-1-1.1-2.6-1.6-4.7-1.6c-1.4,0-2.6,0.3-3.7,0.8c-1.1,0.6-2,1.3-2.7,2.4v27.9H97.2v-38.4H106.8z"/>
<path d="M155.4,458.1c-5.5,0-10-1.8-13.3-5.3s-5-8.1-5-13.5v-1.4c0-5.7,1.6-10.4,4.7-14.1c3.1-3.7,7.3-5.5,12.6-5.5
	c5.2,0,9.2,1.6,12.1,4.7c2.9,3.1,4.3,7.3,4.3,12.7v5.6h-22.9l-0.1,0.2c0.2,2.5,1,4.6,2.5,6.2c1.5,1.6,3.5,2.4,6.1,2.4
	c2.3,0,4.2-0.2,5.7-0.7c1.5-0.5,3.2-1.2,5-2.2l2.8,6.4c-1.6,1.3-3.6,2.3-6.1,3.2S158.5,458.1,155.4,458.1z M154.5,426.2
	c-1.9,0-3.4,0.7-4.5,2.2c-1.1,1.5-1.8,3.4-2.1,5.8l0.1,0.2h12.7v-0.9c0-2.2-0.5-4-1.5-5.3C158.1,426.8,156.6,426.2,154.5,426.2z"/>
<path d="M213.5,413.6h-14.6v43.7h-10.4v-43.7h-14.6v-8h39.6V413.6z"/>
<path d="M229.3,409.7h-10.4v-7.8h10.4V409.7z M229.3,457.3h-10.4v-38.4h10.4V457.3z"/>
<path d="M247.4,418.9l0.4,5.1c1.2-1.8,2.8-3.3,4.6-4.3c1.9-1,4-1.5,6.4-1.5c2.5,0,4.6,0.5,6.3,1.6c1.8,1.1,3.1,2.7,4,4.9
	c1.2-2.1,2.7-3.7,4.6-4.8c1.9-1.2,4.1-1.7,6.7-1.7c3.8,0,6.8,1.3,9,3.9c2.2,2.6,3.3,6.6,3.3,11.9v23.3h-10.4V434
	c0-2.9-0.5-4.9-1.4-6.1c-0.9-1.1-2.4-1.7-4.2-1.7c-1.5,0-2.7,0.3-3.8,1c-1.1,0.7-1.9,1.6-2.6,2.7c0,0.4,0,0.8,0,1.2c0,0.3,0,0.6,0,1
	v25.3h-10.3V434c0-2.8-0.5-4.9-1.4-6c-0.9-1.2-2.4-1.8-4.3-1.8c-1.4,0-2.6,0.3-3.7,0.8s-1.9,1.3-2.6,2.3v28.1h-10.3v-38.4H247.4z"/>
<path d="M317.7,458.1c-5.5,0-10-1.8-13.3-5.3c-3.3-3.6-5-8.1-5-13.5v-1.4c0-5.7,1.6-10.4,4.7-14.1c3.1-3.7,7.3-5.5,12.6-5.5
	c5.2,0,9.2,1.6,12.1,4.7c2.9,3.1,4.3,7.3,4.3,12.7v5.6h-22.9l-0.1,0.2c0.2,2.5,1,4.6,2.5,6.2c1.5,1.6,3.5,2.4,6.1,2.4
	c2.3,0,4.2-0.2,5.7-0.7c1.5-0.5,3.2-1.2,5-2.2l2.8,6.4c-1.6,1.3-3.6,2.3-6.1,3.2S320.8,458.1,317.7,458.1z M316.8,426.2
	c-1.9,0-3.4,0.7-4.5,2.2c-1.1,1.5-1.8,3.4-2.1,5.8l0.1,0.2H323v-0.9c0-2.2-0.5-4-1.5-5.3C320.5,426.8,318.9,426.2,316.8,426.2z"/>
</svg>
