<?xml version="1.0" encoding="utf-8"?>
<!-- Generator: Adobe Illustrator 15.0.0, SVG Export Plug-In  -->
<!DOCTYPE svg PUBLIC "-//W3C//DTD SVG 1.1//EN" "http://www.w3.org/Graphics/SVG/1.1/DTD/svg11.dtd" [
	<!ENTITY ns_flows "http://ns.adobe.com/Flows/1.0/">
]>
<svg version="1.1"
	 xmlns="http://www.w3.org/2000/svg" xmlns:xlink="http://www.w3.org/1999/xlink" xmlns:a="http://ns.adobe.com/AdobeSVGViewerExtensions/3.0/"
	 x="0px" y="0px" width="500px" height="500px" viewBox="-68.7 -27.7 500 500"
	 overflow="visible" enable-background="new -68.7 -27.7 500 500" xml:space="preserve">
<defs>
</defs>
<path fill="#316EB6" d="M34.3,40.7V0h-9.5C11.1,0,0,11.1,0,24.9v15.9H34.3z"/>
<rect x="40.5" fill="#316EB6" width="31" height="40.7"/>
<rect x="40.5" y="47" fill="#316EB6" width="31" height="29.7"/>
<path fill="#316EB6" d="M337.7,0h-260v40.7H96V47H77.7v29.7H96v6.2H77.7v11.3h-6.2V82.9h-31v11.3h-6.2V82.9H0v254.8
	c0,13.7,11.1,24.9,24.9,24.9h312.8c13.7,0,24.9-11.1,24.9-24.9V24.9C362.5,11.1,351.4,0,337.7,0z"/>
<rect y="47" fill="#316EB6" width="34.3" height="29.7"/>
<g>
	<linearGradient id="SVGID_1_" gradientUnits="userSpaceOnUse" x1="351.9932" y1="358.0596" x2="61.9563" y2="57.7177">
		<stop  offset="0" style="stop-color:#F1F2F2"/>
		<stop  offset="0.6344" style="stop-color:#F3F3F4"/>
		<stop  offset="0.8626" style="stop-color:#F9F9F9"/>
		<stop  offset="0.9325" style="stop-color:#FFFFFF"/>
		<stop  offset="0.9422" style="stop-color:#EFF0F1"/>
		<stop  offset="0.9606" style="stop-color:#CFD1D3"/>
		<stop  offset="0.9857" style="stop-color:#9D9FA2"/>
		<stop  offset="1" style="stop-color:#808285"/>
		<a:midPointStop  offset="0" style="stop-color:#F1F2F2"/>
		<a:midPointStop  offset="0.87" style="stop-color:#F1F2F2"/>
		<a:midPointStop  offset="0.9325" style="stop-color:#FFFFFF"/>
		<a:midPointStop  offset="0.5625" style="stop-color:#FFFFFF"/>
		<a:midPointStop  offset="1" style="stop-color:#808285"/>
	</linearGradient>
	<path fill="url(#SVGID_1_)" d="M24.9,362.3c-13.6,0-24.6-11-24.6-24.6V122.4h96.1c13.2-0.3,24.7-11.8,25.1-25.1v-97h216.2
		c13.6,0,24.6,11,24.6,24.6v312.8c0,13.6-11,24.6-24.6,24.6H24.9z"/>
	<g>
		<path fill="#A7A9AC" d="M337.7,0.5c13.4,0,24.4,10.9,24.4,24.4v312.8c0,13.4-10.9,24.4-24.4,24.4H24.9
			c-13.4,0-24.4-10.9-24.4-24.4v-215h95.9c13.4-0.3,25-11.9,25.3-25.4V0.5H337.7 M337.7,0H121.2v97.3c-0.4,13.6-12,24.6-24.9,24.9H0
			v215.5c0,13.7,11.1,24.9,24.9,24.9h312.8c13.7,0,24.9-11.1,24.9-24.9V24.9C362.5,11.1,351.4,0,337.7,0L337.7,0z"/>
	</g>
</g>
<linearGradient id="SVGID_2_" gradientUnits="userSpaceOnUse" x1="113.5181" y1="115.8677" x2="59.488" y2="59.9179">
	<stop  offset="0" style="stop-color:#F5E981"/>
	<stop  offset="0.3403" style="stop-color:#F5EA82"/>
	<stop  offset="0.4628" style="stop-color:#F6EA88"/>
	<stop  offset="0.5502" style="stop-color:#F6EC91"/>
	<stop  offset="0.6209" style="stop-color:#F7ED9E"/>
	<stop  offset="0.6814" style="stop-color:#F8F0AF"/>
	<stop  offset="0.735" style="stop-color:#FAF4C5"/>
	<stop  offset="0.7822" style="stop-color:#FCF8DD"/>
	<stop  offset="0.8254" style="stop-color:#FFFEFB"/>
	<stop  offset="0.8282" style="stop-color:#FFFFFF"/>
	<stop  offset="0.8534" style="stop-color:#FFFEF9"/>
	<stop  offset="0.8811" style="stop-color:#FDFCEE"/>
	<stop  offset="0.91" style="stop-color:#FBF8DC"/>
	<stop  offset="0.9398" style="stop-color:#FAF4C5"/>
	<stop  offset="0.9699" style="stop-color:#F8EFA6"/>
	<stop  offset="1" style="stop-color:#F5E981"/>
	<a:midPointStop  offset="0" style="stop-color:#F5E981"/>
	<a:midPointStop  offset="0.87" style="stop-color:#F5E981"/>
	<a:midPointStop  offset="0.8282" style="stop-color:#FFFFFF"/>
	<a:midPointStop  offset="0.6875" style="stop-color:#FFFFFF"/>
	<a:midPointStop  offset="1" style="stop-color:#F5E981"/>
</linearGradient>
<path fill="url(#SVGID_2_)" d="M99.4,122.4H0.1L121.4,0.1v99.2C121.4,110.3,110,122.4,99.4,122.4z"/>
<rect x="89.2" y="159.3" fill="#3CB770" width="184.2" height="15"/>
<rect x="89.2" y="200.4" fill="#3CB770" width="184.2" height="15"/>
<rect x="89.2" y="240.4" fill="#3CB770" width="184.2" height="15"/>
<path fill="#008E8E" d="M83.8,424.8c0,6.2-2,11.4-5.9,15.4c-3.9,4.1-9.1,6.1-15.4,6.1c-6.2,0-11.3-2-15.2-6.1
	c-3.9-4.1-5.9-9.2-5.9-15.4v-9.1c0-6.2,1.9-11.3,5.8-15.4c3.9-4.1,9-6.1,15.2-6.1c6.3,0,11.4,2,15.4,6.1c3.9,4.1,5.9,9.2,5.9,15.4
	V424.8z M73.6,415.6c0-4-1-7.2-3-9.7c-2-2.5-4.7-3.8-8.2-3.8c-3.5,0-6.1,1.3-8,3.8c-1.9,2.5-2.9,5.8-2.9,9.8v9.2c0,4,1,7.3,2.9,9.8
	c1.9,2.5,4.6,3.8,8,3.8c3.5,0,6.2-1.3,8.2-3.8c2-2.5,2.9-5.8,2.9-9.8V415.6z"/>
<path fill="#008E8E" d="M100.2,407.9l0.5,5.4c1.3-1.9,2.8-3.4,4.6-4.5c1.8-1.1,3.9-1.6,6.2-1.6c3.8,0,6.8,1.2,8.9,3.6
	c2.1,2.4,3.2,6.1,3.2,11.3v23.6h-10.2V422c0-2.5-0.5-4.3-1.5-5.4c-1-1.1-2.6-1.6-4.6-1.6c-1.3,0-2.6,0.3-3.6,0.8
	c-1.1,0.5-2,1.3-2.7,2.3v27.4H90.7v-37.7H100.2z"/>
<path fill="#008E8E" d="M147.8,446.3c-5.4,0-9.8-1.7-13-5.2c-3.3-3.5-4.9-7.9-4.9-13.3v-1.4c0-5.6,1.5-10.2,4.6-13.8
	c3.1-3.6,7.2-5.4,12.4-5.4c5.1,0,9,1.5,11.8,4.6c2.8,3.1,4.2,7.2,4.2,12.4v5.5h-22.5l-0.1,0.2c0.2,2.5,1,4.5,2.5,6.1
	c1.5,1.6,3.5,2.4,6,2.4c2.3,0,4.1-0.2,5.6-0.7c1.5-0.4,3.1-1.2,4.9-2.1l2.8,6.3c-1.5,1.3-3.5,2.3-6,3.1
	C153.6,445.9,150.9,446.3,147.8,446.3z M146.9,415c-1.9,0-3.4,0.7-4.5,2.2c-1.1,1.4-1.8,3.3-2,5.7l0.1,0.2H153v-0.9
	c0-2.2-0.5-3.9-1.5-5.2C150.5,415.7,149,415,146.9,415z"/>
<path fill="#008E8E" d="M204.8,402.7h-14.4v42.9h-10.2v-42.9H166v-7.8h38.8V402.7z"/>
<path fill="#008E8E" d="M220.4,398.9h-10.2v-7.6h10.2V398.9z M220.4,445.6h-10.2v-37.7h10.2V445.6z"/>
<path fill="#008E8E" d="M238.2,407.9l0.4,5c1.2-1.8,2.7-3.2,4.5-4.2c1.8-1,3.9-1.5,6.3-1.5c2.4,0,4.5,0.5,6.2,1.6
	c1.7,1.1,3,2.7,3.9,4.8c1.2-2,2.7-3.6,4.5-4.7c1.9-1.1,4-1.7,6.5-1.7c3.7,0,6.6,1.3,8.8,3.9c2.1,2.6,3.2,6.5,3.2,11.7v22.8h-10.2
	v-22.9c0-2.9-0.5-4.9-1.4-6c-0.9-1.1-2.3-1.7-4.1-1.7c-1.4,0-2.7,0.3-3.7,1c-1.1,0.6-1.9,1.5-2.5,2.7c0,0.4,0,0.8,0,1.1
	c0,0.3,0,0.6,0,1v24.8h-10.1v-22.9c0-2.8-0.5-4.8-1.4-5.9c-0.9-1.2-2.3-1.7-4.2-1.7c-1.4,0-2.6,0.3-3.6,0.8c-1,0.5-1.9,1.3-2.6,2.2
	v27.6h-10.1v-37.7H238.2z"/>
<path fill="#008E8E" d="M307.2,446.3c-5.4,0-9.8-1.7-13-5.2c-3.3-3.5-4.9-7.9-4.9-13.3v-1.4c0-5.6,1.5-10.2,4.6-13.8
	c3.1-3.6,7.2-5.4,12.4-5.4c5.1,0,9,1.5,11.8,4.6c2.8,3.1,4.2,7.2,4.2,12.4v5.5h-22.5l-0.1,0.2c0.2,2.5,1,4.5,2.5,6.1
	c1.5,1.6,3.5,2.4,6,2.4c2.3,0,4.1-0.2,5.6-0.7c1.5-0.4,3.1-1.2,4.9-2.1l2.8,6.3c-1.5,1.3-3.5,2.3-6,3.1
	C313,445.9,310.2,446.3,307.2,446.3z M306.2,415c-1.9,0-3.4,0.7-4.5,2.2c-1.1,1.4-1.8,3.3-2,5.7l0.1,0.2h12.5v-0.9
	c0-2.2-0.5-3.9-1.5-5.2C309.8,415.7,308.3,415,306.2,415z"/>
</svg>
