<?xml version="1.0" standalone="no"?>
<!DOCTYPE svg PUBLIC "-//W3C//DTD SVG 20010904//EN"
 "http://www.w3.org/TR/2001/REC-SVG-20010904/DTD/svg10.dtd">
<svg version="1.0" xmlns="http://www.w3.org/2000/svg"
 width="225.000000pt" height="225.000000pt" viewBox="0 0 225.000000 225.000000"
 preserveAspectRatio="xMidYMid meet">
<metadata>
Created by potrace 1.11, written by Peter Selinger 2001-2013
</metadata>
<g transform="translate(0.000000,225.000000) scale(0.100000,-0.100000)"
fill="#000000" stroke="none">
<path d="M350 2143 c-48 -33 -53 -43 -56 -109 l-2 -64 79 0 c43 0 79 3 79 8 1
4 2 46 3 95 l2 87 -40 0 c-22 0 -52 -8 -65 -17z"/>
<path d="M479 2148 c0 -7 -1 -50 -2 -96 l-2 -83 75 3 75 3 0 93 1 92 -73 0
c-51 0 -73 -4 -74 -12z"/>
<path d="M651 2059 c1 -57 -3 -105 -9 -111 -5 -5 -43 -8 -86 -6 -46 2 -76 -1
-77 -7 -4 -42 -3 -94 3 -117 4 -19 1 -31 -13 -44 -10 -9 -19 -12 -19 -6 0 7
-28 11 -79 10 l-79 -1 1 -613 2 -614 33 -32 32 -33 770 0 770 0 32 33 33 32 3
753 c1 413 0 761 -2 773 -7 25 -34 57 -63 72 -16 9 -191 12 -638 12 l-616 0 2
-101z"/>
<path d="M328 1942 l-38 -3 1 -69 1 -69 81 2 81 2 -1 48 c-2 90 1 85 -45 88
-24 2 -60 3 -80 1z"/>
<path d="M1262 323 c5 -25 48 -26 48 -2 0 14 -7 19 -26 19 -19 0 -25 -4 -22
-17z"/>
<path d="M534 312 c-34 -27 -44 -55 -41 -117 3 -49 7 -61 31 -82 23 -19 37
-23 74 -21 39 3 50 8 67 34 39 58 26 170 -22 189 -41 15 -88 14 -109 -3z m88
-39 c18 -22 23 -94 9 -121 -15 -28 -46 -33 -70 -10 -26 24 -30 108 -5 132 20
21 47 20 66 -1z"/>
<path d="M1063 312 c-7 -18 12 -30 40 -25 22 4 23 2 22 -79 -1 -106 2 -120 29
-116 20 3 21 9 21 101 l0 98 30 -3 c24 -2 30 1 30 17 0 18 -7 19 -84 20 -63 1
-84 -2 -88 -13z"/>
<path d="M719 230 c-1 -19 -2 -51 -3 -70 -2 -45 11 -72 32 -68 13 3 17 15 18
53 2 87 2 87 27 83 20 -3 22 -9 25 -70 3 -65 4 -68 27 -66 24 2 25 5 25 70 0
55 -4 72 -20 88 -22 22 -42 25 -71 10 -10 -6 -19 -7 -19 -2 0 4 -9 8 -20 8
-16 0 -20 -7 -21 -36z"/>
<path d="M924 247 c-35 -30 -37 -97 -3 -133 39 -41 141 -28 115 15 -4 6 -18 6
-36 1 -21 -6 -32 -4 -41 6 -16 20 -9 25 45 26 45 1 46 1 46 33 0 66 -74 97
-126 52z m74 -34 c2 -8 -6 -13 -22 -13 -25 0 -33 10 -19 24 10 10 36 3 41 -11z"/>
<path d="M1278 263 c-14 -4 -17 -16 -15 -86 2 -77 3 -82 25 -85 21 -3 22 -1
22 87 0 50 -3 90 -7 90 -5 -1 -16 -3 -25 -6z"/>
<path d="M1348 258 c-2 -4 -2 -43 0 -87 3 -73 5 -78 25 -79 20 0 22 5 21 52
-1 57 10 86 31 86 16 0 24 -28 23 -75 -1 -58 2 -65 22 -65 23 0 22 -3 24 75 1
50 5 60 20 63 26 5 36 -15 36 -79 0 -52 2 -56 23 -55 20 1 22 6 23 61 0 33 -4
70 -10 83 -11 27 -46 38 -74 23 -15 -8 -28 -8 -46 1 -20 8 -32 8 -51 0 -14 -6
-25 -7 -25 -2 0 11 -39 9 -42 -2z"/>
<path d="M1652 250 c-42 -40 -34 -136 13 -154 24 -9 78 -7 94 3 21 14 6 44
-16 33 -19 -10 -57 0 -68 17 -6 11 14 14 72 11 31 -1 32 0 28 37 -6 66 -76 96
-123 53z m76 -37 c2 -9 -7 -13 -28 -13 -28 0 -31 2 -20 15 15 18 41 16 48 -2z"/>
</g>
</svg>
